<?xml version="1.0" encoding="utf-8"?>
<!-- Generator: Adobe Illustrator 25.2.1, SVG Export Plug-In . SVG Version: 6.00 Build 0)  -->
<svg version="1.1" id="Layer_1" xmlns="http://www.w3.org/2000/svg" xmlns:xlink="http://www.w3.org/1999/xlink" x="0px" y="0px"
	 viewBox="0 0 19.2 28.8" style="enable-background:new 0 0 19.2 28.8;" xml:space="preserve">
<style type="text/css">
	.st0{fill:#E07A5F;}
</style>
<path class="st0" d="M10.2,0c0.6,0.1,1.2,0.2,1.8,0.3c1.7,0.4,3.2,1.3,4.4,2.5c1.4,1.4,2.3,3.1,2.6,5c0.5,2.2,0.1,4.5-1,6.5l-7.8,14
	c-0.1,0.1-0.1,0.2-0.2,0.3c-0.2,0.2-0.6,0.3-0.8,0c-0.1-0.1-0.1-0.2-0.2-0.3c-0.6-1.1-1.2-2.2-1.9-3.3L1.3,14.4C0.5,13,0,11.4,0,9.7
	c0-2.7,1.1-5.2,3-7c1.2-1.2,2.8-2.1,4.5-2.5C8,0.1,8.5,0.1,9,0L10.2,0z M9.6,4.8C7,4.8,4.8,6.9,4.8,9.6c0,2.7,2.1,4.8,4.8,4.8
	c2.6,0,4.8-2.1,4.8-4.7C14.4,7,12.3,4.8,9.6,4.8C9.6,4.8,9.6,4.8,9.6,4.8L9.6,4.8z"/>
</svg>
