<svg id="Layer_1" data-name="Layer 1" xmlns="http://www.w3.org/2000/svg" viewBox="0 0 19.2 28.82"><defs><style>.cls-1{fill:#f4100b;}</style></defs><path class="cls-1" d="M15,3.77c.61.1,1.24.18,1.84.33a9.13,9.13,0,0,1,4.37,2.48,9.33,9.33,0,0,1,2.64,5,9.5,9.5,0,0,1-1,6.52l-7.75,14a1.39,1.39,0,0,1-.24.34.59.59,0,0,1-1-.22C13.24,31.11,12.64,30,12,28.93L6.11,18.21a9.56,9.56,0,0,1-1.29-4.72,9.44,9.44,0,0,1,3-7A9.28,9.28,0,0,1,12.33,4c.5-.12,1-.17,1.52-.24Zm-.53,4.8a4.8,4.8,0,1,0,4.76,4.85A4.81,4.81,0,0,0,14.45,8.57Z" transform="translate(-4.82 -3.77)"/></svg>