<?xml version="1.0" encoding="utf-8"?>
<!-- Generator: Adobe Illustrator 25.2.1, SVG Export Plug-In . SVG Version: 6.00 Build 0)  -->
<svg version="1.1" id="Layer_1" xmlns="http://www.w3.org/2000/svg" xmlns:xlink="http://www.w3.org/1999/xlink" x="0px" y="0px"
	 viewBox="0 0 15.4 15.2" style="enable-background:new 0 0 15.4 15.2;" xml:space="preserve">
<style type="text/css">
	.st0{fill:#E07A5F;}
</style>
<g>
	<path class="st0" d="M0,5.8c0.1-0.3,0.3-0.6,0.5-0.8C1.3,4.3,2.2,3.5,3.2,3c1.2-0.6,2.4-1,3.7-1.1c2-0.2,3.9,0.2,5.7,1.2
		c0.9,0.5,1.7,1.2,2.4,2c0.1,0.2,0.2,0.4,0.3,0.6c0,0.1,0,0.2,0,0.3c-0.1,0.2-0.2,0.5-0.4,0.6c-0.4,0.4-1,0.3-1.4-0.1
		c-0.4-0.4-0.8-0.8-1.3-1.2C10.7,4.2,9,3.8,7.1,3.9c-1.9,0.2-3.5,1-4.8,2.3C2.1,6.4,2,6.5,1.8,6.7C1.2,7.3,0.2,7,0,6.2
		c0,0,0,0,0-0.1C0,6,0,5.9,0,5.8z"/>
	<path class="st0" d="M7.8,5.6c1.1,0,2,0.3,2.9,0.8c0.7,0.4,1.3,0.9,1.8,1.5c0.3,0.4,0.3,1.1-0.1,1.4c-0.4,0.4-1,0.4-1.5,0.1
		c-0.2-0.2-0.4-0.4-0.7-0.6c-0.8-0.7-1.7-1-2.8-1C6.7,7.9,5.9,8.3,5.3,8.9C5.1,9.1,4.9,9.3,4.7,9.5C4,10.1,3,9.8,2.8,9
		c-0.1-0.4,0-0.7,0.3-1C3.7,7.3,4.3,6.7,5,6.3C5.9,5.8,6.8,5.6,7.8,5.6z"/>
	<path class="st0" d="M9.5,11.6c0,1-0.8,1.8-1.8,1.8c-1,0-1.8-0.8-1.8-1.8c0-1,0.8-1.8,1.8-1.8C8.7,9.8,9.5,10.6,9.5,11.6z"/>
</g>
</svg>
